<svg xmlns="http://www.w3.org/2000/svg" xmlns:xlink="http://www.w3.org/1999/xlink" width="500" zoomAndPan="magnify" viewBox="0 0 375 374.999991" height="500" preserveAspectRatio="xMidYMid meet" version="1.0"><defs><g/><clipPath id="e5ae818150"><path d="M 228.546875 165.355469 L 260 165.355469 L 260 209 L 228.546875 209 Z M 228.546875 165.355469 " clip-rule="nonzero"/></clipPath></defs><g clip-path="url(#e5ae818150)"><path fill="#5e17eb" d="M 228.566406 202.953125 C 228.546875 205.347656 229.597656 207.804688 231.554688 208.523438 C 233.921875 209.59375 236.683594 207.878906 237.535156 204.949219 C 237.535156 204.9375 237.53125 204.925781 237.535156 204.917969 C 238.6875 201.722656 239.25 197.746094 242.828125 194.285156 L 244.167969 192.988281 L 245.359375 194.160156 C 248.933594 197.628906 249.480469 201.59375 250.628906 204.789062 C 250.632812 204.796875 250.625 204.8125 250.628906 204.820312 C 251.472656 207.742188 254.222656 209.4375 256.582031 208.398438 C 256.589844 208.394531 256.597656 208.402344 256.605469 208.398438 C 258.996094 207.507812 260.054688 204.019531 259.417969 201.214844 C 259.417969 201.203125 259.421875 201.191406 259.417969 201.183594 C 258.917969 198.3125 256.585938 195.960938 254.226562 196.625 C 253.0625 196.953125 252.519531 197.375 252.199219 197.765625 C 252.039062 197.960938 251.9375 198.128906 251.84375 198.238281 C 251.75 198.351562 251.492188 198.8125 251.492188 198.8125 C 251.285156 198.527344 251.1875 198.359375 251.035156 198.113281 C 250.796875 197.746094 250.503906 197.105469 250.148438 196.277344 C 249.445312 194.636719 248.453125 192.222656 246.855469 189.445312 C 249.707031 184.421875 253.398438 177.894531 255.441406 174.289062 C 257.484375 170.679688 256.453125 166.988281 255.515625 165.460938 L 244.175781 184.804688 L 232.722656 165.347656 C 230.867188 168.363281 231.652344 171.804688 232.769531 174.097656 C 235.660156 179.195312 238.53125 184.304688 241.410156 189.414062 C 240.136719 191.742188 238.972656 194.238281 238.039062 196.40625 C 237.683594 197.234375 237.394531 197.871094 237.152344 198.242188 C 237.035156 198.425781 236.773438 198.890625 236.773438 198.890625 C 236.527344 198.464844 236.070312 198.015625 235.722656 197.6875 C 235.375 197.359375 234.859375 196.972656 233.960938 196.753906 C 231.589844 196.167969 229.25 198.4375 228.742188 201.308594 C 228.621094 201.863281 228.601562 202.464844 228.566406 202.953125 Z M 230.566406 203.269531 C 230.519531 202.203125 230.808594 201.101562 231.378906 200.390625 C 232.230469 199.328125 233.40625 199.128906 234.367188 199.539062 C 235.328125 199.949219 236.042969 200.929688 236.039062 202.320312 L 236.039062 202.351562 C 236.097656 203.628906 235.507812 204.871094 234.644531 205.613281 C 233.78125 206.351562 232.707031 206.5625 231.785156 205.832031 L 231.757812 205.832031 C 230.992188 205.328125 230.617188 204.339844 230.566406 203.269531 Z M 252.125 202.449219 C 252.121094 202.355469 252.121094 202.257812 252.125 202.195312 C 252.125 200.804688 252.832031 199.820312 253.796875 199.410156 C 254.757812 199.003906 255.933594 199.199219 256.785156 200.265625 C 257.351562 200.976562 257.671875 202.109375 257.621094 203.175781 C 257.570312 204.246094 257.171875 205.207031 256.40625 205.707031 L 256.378906 205.738281 C 255.484375 206.441406 254.46875 206.238281 253.617188 205.550781 C 252.769531 204.859375 252.140625 203.675781 252.125 202.449219 Z M 252.125 202.449219 " fill-opacity="1" fill-rule="nonzero"/></g><g fill="#000000" fill-opacity="1"><g transform="translate(37.535158, 197.56276)"><g><path d="M 20.671875 -8.234375 C 20.671875 -6.554688 20.242188 -5.0625 19.390625 -3.75 C 18.535156 -2.445312 17.300781 -1.429688 15.6875 -0.703125 C 14.082031 0.015625 12.195312 0.375 10.03125 0.375 C 8.226562 0.375 6.710938 0.25 5.484375 0 C 4.265625 -0.257812 2.992188 -0.707031 1.671875 -1.34375 L 1.671875 -7.875 C 3.066406 -7.15625 4.519531 -6.59375 6.03125 -6.1875 C 7.539062 -5.78125 8.925781 -5.578125 10.1875 -5.578125 C 11.269531 -5.578125 12.066406 -5.765625 12.578125 -6.140625 C 13.085938 -6.523438 13.34375 -7.015625 13.34375 -7.609375 C 13.34375 -7.984375 13.238281 -8.304688 13.03125 -8.578125 C 12.832031 -8.859375 12.503906 -9.140625 12.046875 -9.421875 C 11.597656 -9.710938 10.394531 -10.296875 8.4375 -11.171875 C 6.675781 -11.972656 5.351562 -12.75 4.46875 -13.5 C 3.582031 -14.257812 2.925781 -15.128906 2.5 -16.109375 C 2.070312 -17.085938 1.859375 -18.242188 1.859375 -19.578125 C 1.859375 -22.078125 2.765625 -24.023438 4.578125 -25.421875 C 6.398438 -26.816406 8.898438 -27.515625 12.078125 -27.515625 C 14.890625 -27.515625 17.753906 -26.863281 20.671875 -25.5625 L 18.421875 -19.90625 C 15.890625 -21.070312 13.703125 -21.65625 11.859375 -21.65625 C 10.898438 -21.65625 10.203125 -21.488281 9.765625 -21.15625 C 9.335938 -20.820312 9.125 -20.40625 9.125 -19.90625 C 9.125 -19.375 9.398438 -18.894531 9.953125 -18.46875 C 10.503906 -18.050781 12 -17.289062 14.4375 -16.1875 C 16.769531 -15.132812 18.390625 -14.003906 19.296875 -12.796875 C 20.210938 -11.585938 20.671875 -10.066406 20.671875 -8.234375 Z M 20.671875 -8.234375 "/></g></g></g><g fill="#000000" fill-opacity="1"><g transform="translate(59.462289, 197.56276)"><g><path d="M 17.484375 0 L 16.5625 -2.609375 L 16.140625 -2.609375 C 15.535156 -1.648438 14.691406 -0.910156 13.609375 -0.390625 C 12.523438 0.117188 11.253906 0.375 9.796875 0.375 C 7.484375 0.375 5.679688 -0.296875 4.390625 -1.640625 C 3.109375 -2.984375 2.46875 -4.878906 2.46875 -7.328125 L 2.46875 -21.015625 L 9.71875 -21.015625 L 9.71875 -9.53125 C 9.71875 -8.164062 9.910156 -7.128906 10.296875 -6.421875 C 10.691406 -5.710938 11.335938 -5.359375 12.234375 -5.359375 C 13.484375 -5.359375 14.375 -5.847656 14.90625 -6.828125 C 15.4375 -7.816406 15.703125 -9.476562 15.703125 -11.8125 L 15.703125 -21.015625 L 22.953125 -21.015625 L 22.953125 0 Z M 17.484375 0 "/></g></g></g><g fill="#000000" fill-opacity="1"><g transform="translate(84.914085, 197.56276)"><g><path d="M 15.34375 -21.390625 C 17.632812 -21.390625 19.445312 -20.429688 20.78125 -18.515625 C 22.125 -16.597656 22.796875 -13.945312 22.796875 -10.5625 C 22.796875 -7.144531 22.117188 -4.46875 20.765625 -2.53125 C 19.410156 -0.59375 17.53125 0.375 15.125 0.375 C 14.34375 0.375 13.648438 0.289062 13.046875 0.125 C 12.441406 -0.0390625 11.898438 -0.269531 11.421875 -0.5625 C 10.941406 -0.863281 10.390625 -1.363281 9.765625 -2.0625 L 9.3125 -2.0625 L 8.171875 0 L 2.5 0 L 2.5 -28.875 L 9.765625 -28.875 L 9.765625 -22.34375 C 9.765625 -21.5625 9.675781 -20.21875 9.5 -18.3125 L 9.765625 -18.3125 C 10.460938 -19.40625 11.269531 -20.191406 12.1875 -20.671875 C 13.113281 -21.148438 14.164062 -21.390625 15.34375 -21.390625 Z M 12.6875 -15.703125 C 11.675781 -15.703125 10.9375 -15.347656 10.46875 -14.640625 C 10 -13.929688 9.765625 -12.820312 9.765625 -11.3125 L 9.765625 -10.296875 C 9.765625 -8.578125 10 -7.34375 10.46875 -6.59375 C 10.9375 -5.84375 11.703125 -5.46875 12.765625 -5.46875 C 13.617188 -5.46875 14.273438 -5.90625 14.734375 -6.78125 C 15.191406 -7.65625 15.421875 -8.9375 15.421875 -10.625 C 15.421875 -14.007812 14.507812 -15.703125 12.6875 -15.703125 Z M 12.6875 -15.703125 "/></g></g></g><g fill="#000000" fill-opacity="1"><g transform="translate(109.345583, 197.56276)"><g><path d="M 9.765625 0 L 2.5 0 L 2.5 -28.875 L 9.765625 -28.875 Z M 9.765625 0 "/></g></g></g><g fill="#000000" fill-opacity="1"><g transform="translate(121.62626, 197.56276)"><g><path d="M 9.796875 0 L 2.546875 0 L 2.546875 -21.015625 L 9.796875 -21.015625 Z M 2.359375 -26.25 C 2.359375 -27.34375 2.660156 -28.15625 3.265625 -28.6875 C 3.867188 -29.21875 4.847656 -29.484375 6.203125 -29.484375 C 7.546875 -29.484375 8.523438 -29.207031 9.140625 -28.65625 C 9.765625 -28.113281 10.078125 -27.3125 10.078125 -26.25 C 10.078125 -24.125 8.785156 -23.0625 6.203125 -23.0625 C 3.640625 -23.0625 2.359375 -24.125 2.359375 -26.25 Z M 2.359375 -26.25 "/></g></g></g><g fill="#000000" fill-opacity="1"><g transform="translate(133.98114, 197.56276)"><g><path d="M 28.3125 0 L 28.3125 -11.4375 C 28.3125 -12.851562 28.113281 -13.914062 27.71875 -14.625 C 27.332031 -15.34375 26.722656 -15.703125 25.890625 -15.703125 C 24.773438 -15.703125 23.957031 -15.222656 23.4375 -14.265625 C 22.914062 -13.316406 22.65625 -11.828125 22.65625 -9.796875 L 22.65625 0 L 15.375 0 L 15.375 -11.4375 C 15.375 -12.851562 15.1875 -13.914062 14.8125 -14.625 C 14.445312 -15.34375 13.851562 -15.703125 13.03125 -15.703125 C 11.882812 -15.703125 11.050781 -15.191406 10.53125 -14.171875 C 10.019531 -13.160156 9.765625 -11.503906 9.765625 -9.203125 L 9.765625 0 L 2.5 0 L 2.5 -21.015625 L 7.984375 -21.015625 L 8.890625 -18.421875 L 9.3125 -18.421875 C 9.875 -19.390625 10.679688 -20.125 11.734375 -20.625 C 12.796875 -21.132812 14 -21.390625 15.34375 -21.390625 C 18.375 -21.390625 20.503906 -20.46875 21.734375 -18.625 L 22.296875 -18.625 C 22.890625 -19.488281 23.710938 -20.164062 24.765625 -20.65625 C 25.828125 -21.144531 27 -21.390625 28.28125 -21.390625 C 30.757812 -21.390625 32.59375 -20.753906 33.78125 -19.484375 C 34.96875 -18.210938 35.5625 -16.273438 35.5625 -13.671875 L 35.5625 0 Z M 28.3125 0 "/></g></g></g><g fill="#000000" fill-opacity="1"><g transform="translate(171.973325, 197.56276)"><g><path d="M 12.65625 0.375 C 9.15625 0.375 6.4375 -0.554688 4.5 -2.421875 C 2.5625 -4.285156 1.59375 -6.9375 1.59375 -10.375 C 1.59375 -13.925781 2.488281 -16.648438 4.28125 -18.546875 C 6.082031 -20.441406 8.644531 -21.390625 11.96875 -21.390625 C 15.132812 -21.390625 17.578125 -20.5625 19.296875 -18.90625 C 21.023438 -17.257812 21.890625 -14.882812 21.890625 -11.78125 L 21.890625 -8.546875 L 8.921875 -8.546875 C 8.972656 -7.378906 9.40625 -6.457031 10.21875 -5.78125 C 11.03125 -5.113281 12.132812 -4.78125 13.53125 -4.78125 C 14.800781 -4.78125 15.96875 -4.898438 17.03125 -5.140625 C 18.101562 -5.390625 19.265625 -5.804688 20.515625 -6.390625 L 20.515625 -1.171875 C 19.378906 -0.585938 18.203125 -0.1875 16.984375 0.03125 C 15.773438 0.257812 14.332031 0.375 12.65625 0.375 Z M 12.234375 -16.453125 C 11.378906 -16.453125 10.660156 -16.179688 10.078125 -15.640625 C 9.503906 -15.109375 9.171875 -14.269531 9.078125 -13.125 L 15.3125 -13.125 C 15.28125 -14.132812 14.988281 -14.941406 14.4375 -15.546875 C 13.894531 -16.148438 13.160156 -16.453125 12.234375 -16.453125 Z M 12.234375 -16.453125 "/></g></g></g><g fill="#000000" fill-opacity="1"><g transform="translate(195.458728, 197.56276)"><g><path d="M 18.3125 0 L 0.90625 0 L 0.90625 -4.140625 L 9.609375 -15.46875 L 1.40625 -15.46875 L 1.40625 -21.015625 L 17.90625 -21.015625 L 17.90625 -16.53125 L 9.578125 -5.546875 L 18.3125 -5.546875 Z M 18.3125 0 "/></g></g></g><g fill="#000000" fill-opacity="1"><g transform="translate(214.714533, 197.56276)"><g><path d="M 0.796875 -7.296875 L 0.796875 -13.078125 L 11.28125 -13.078125 L 11.28125 -7.296875 Z M 0.796875 -7.296875 "/></g></g></g><g fill="#000000" fill-opacity="1"><g transform="translate(226.78124, 197.56276)"><g/></g></g><g fill="#000000" fill-opacity="1"><g transform="translate(236.650303, 197.56276)"><g/></g></g><g fill="#000000" fill-opacity="1"><g transform="translate(246.519367, 197.56276)"><g/></g></g><g fill="#000000" fill-opacity="1"><g transform="translate(256.3828, 197.56276)"><g><path d="M 22.578125 -10.5625 C 22.578125 -7.125 21.648438 -4.441406 19.796875 -2.515625 C 17.953125 -0.585938 15.367188 0.375 12.046875 0.375 C 8.847656 0.375 6.304688 -0.609375 4.421875 -2.578125 C 2.535156 -4.546875 1.59375 -7.207031 1.59375 -10.5625 C 1.59375 -13.988281 2.515625 -16.648438 4.359375 -18.546875 C 6.210938 -20.441406 8.8125 -21.390625 12.15625 -21.390625 C 14.21875 -21.390625 16.039062 -20.953125 17.625 -20.078125 C 19.207031 -19.203125 20.425781 -17.941406 21.28125 -16.296875 C 22.144531 -14.660156 22.578125 -12.75 22.578125 -10.5625 Z M 8.96875 -10.5625 C 8.96875 -8.75 9.207031 -7.367188 9.6875 -6.421875 C 10.164062 -5.484375 10.972656 -5.015625 12.109375 -5.015625 C 13.242188 -5.015625 14.039062 -5.484375 14.5 -6.421875 C 14.96875 -7.367188 15.203125 -8.75 15.203125 -10.5625 C 15.203125 -12.351562 14.960938 -13.707031 14.484375 -14.625 C 14.015625 -15.539062 13.210938 -16 12.078125 -16 C 10.960938 -16 10.164062 -15.539062 9.6875 -14.625 C 9.207031 -13.71875 8.96875 -12.363281 8.96875 -10.5625 Z M 8.96875 -10.5625 "/></g></g></g><g fill="#000000" fill-opacity="1"><g transform="translate(280.591688, 197.56276)"><g><path d="M 17.484375 0 L 16.5625 -2.609375 L 16.140625 -2.609375 C 15.535156 -1.648438 14.691406 -0.910156 13.609375 -0.390625 C 12.523438 0.117188 11.253906 0.375 9.796875 0.375 C 7.484375 0.375 5.679688 -0.296875 4.390625 -1.640625 C 3.109375 -2.984375 2.46875 -4.878906 2.46875 -7.328125 L 2.46875 -21.015625 L 9.71875 -21.015625 L 9.71875 -9.53125 C 9.71875 -8.164062 9.910156 -7.128906 10.296875 -6.421875 C 10.691406 -5.710938 11.335938 -5.359375 12.234375 -5.359375 C 13.484375 -5.359375 14.375 -5.847656 14.90625 -6.828125 C 15.4375 -7.816406 15.703125 -9.476562 15.703125 -11.8125 L 15.703125 -21.015625 L 22.953125 -21.015625 L 22.953125 0 Z M 17.484375 0 "/></g></g></g><g fill="#000000" fill-opacity="1"><g transform="translate(306.043484, 197.56276)"><g><path d="M 18.734375 -6.453125 C 18.734375 -4.203125 17.96875 -2.5 16.4375 -1.34375 C 14.90625 -0.195312 12.703125 0.375 9.828125 0.375 C 8.273438 0.375 6.921875 0.289062 5.765625 0.125 C 4.617188 -0.0390625 3.445312 -0.347656 2.25 -0.796875 L 2.25 -6.609375 C 3.375 -6.109375 4.601562 -5.695312 5.9375 -5.375 C 7.28125 -5.0625 8.476562 -4.90625 9.53125 -4.90625 C 11.101562 -4.90625 11.890625 -5.257812 11.890625 -5.96875 C 11.890625 -6.34375 11.671875 -6.675781 11.234375 -6.96875 C 10.796875 -7.257812 9.519531 -7.828125 7.40625 -8.671875 C 5.476562 -9.460938 4.128906 -10.359375 3.359375 -11.359375 C 2.585938 -12.367188 2.203125 -13.648438 2.203125 -15.203125 C 2.203125 -17.148438 2.957031 -18.664062 4.46875 -19.75 C 5.976562 -20.84375 8.113281 -21.390625 10.875 -21.390625 C 12.257812 -21.390625 13.5625 -21.238281 14.78125 -20.9375 C 16 -20.632812 17.265625 -20.191406 18.578125 -19.609375 L 16.609375 -14.9375 C 15.640625 -15.375 14.617188 -15.742188 13.546875 -16.046875 C 12.472656 -16.347656 11.59375 -16.5 10.90625 -16.5 C 9.71875 -16.5 9.125 -16.207031 9.125 -15.625 C 9.125 -15.257812 9.332031 -14.953125 9.75 -14.703125 C 10.164062 -14.453125 11.363281 -13.9375 13.34375 -13.15625 C 14.8125 -12.550781 15.90625 -11.957031 16.625 -11.375 C 17.351562 -10.789062 17.882812 -10.101562 18.21875 -9.3125 C 18.5625 -8.53125 18.734375 -7.578125 18.734375 -6.453125 Z M 18.734375 -6.453125 "/></g></g></g></svg>